<?xml version="1.0" encoding="UTF-8"?>
<svg width="474px" height="474px" viewBox="0 0 474 474" version="1.1" xmlns="http://www.w3.org/2000/svg" xmlns:xlink="http://www.w3.org/1999/xlink">
    <!-- Generator: Sketch 51.3 (57544) - http://www.bohemiancoding.com/sketch -->
    <title>user</title>
    <desc>Created with Sketch.</desc>
    <defs></defs>
    <g id="Page-1" stroke="none" stroke-width="1" fill="none" fill-rule="evenodd">
        <g id="user" fill-rule="nonzero">
            <circle id="Oval" fill="#117167" cx="236.967" cy="236.967" r="236.967"></circle>
            <path d="M236.952,473.935 C315.485,473.935 385.067,435.713 428.184,376.877 C420.173,365.397 388.659,331.852 282.591,306.329 C282.591,282.247 280.193,267.822 280.193,267.822 C280.193,267.822 311.482,224.485 313.884,164.309 C313.884,154.741 318.584,86.873 236.867,83.801 C236.867,83.771 236.867,83.722 236.867,83.7 C236.665,83.7 236.485,83.745 236.265,83.745 C236.055,83.745 235.88,83.7 235.67,83.7 C235.67,83.722 235.67,83.775 235.67,83.801 C153.968,86.869 158.653,154.742 158.653,164.306 C161.051,224.481 192.344,267.819 192.344,267.819 C192.344,267.819 189.927,282.244 189.927,306.326 C86.664,331.174 54.08,363.623 45.044,375.908 C88.104,435.286 157.997,473.935 236.952,473.935 Z" id="Shape" fill="#FFFFFF"></path>
        </g>
    </g>
</svg>