<?xml version="1.0" encoding="UTF-8"?>
<svg width="20px" height="18px" viewBox="0 0 20 18" version="1.1" xmlns="http://www.w3.org/2000/svg" xmlns:xlink="http://www.w3.org/1999/xlink">
    <!-- Generator: Sketch 51.3 (57544) - http://www.bohemiancoding.com/sketch -->
    <title>edit</title>
    <desc>Created with Sketch.</desc>
    <defs>
        <path d="M15.9791667,5.92324219 L19.1111111,9.09433594 C19.2430556,9.22792969 19.2430556,9.44589844 19.1111111,9.57949219 L11.5277778,17.2576172 L8.30555556,17.6197266 C7.875,17.6689453 7.51041667,17.2998047 7.55902778,16.8638672 L7.91666667,13.6013672 L15.5,5.92324219 C15.6319444,5.78964844 15.8472222,5.78964844 15.9791667,5.92324219 Z M21.6041667,5.11816406 L19.9097222,3.40253906 C19.3819444,2.86816406 18.5243056,2.86816406 17.9930556,3.40253906 L16.7638889,4.64707031 C16.6319444,4.78066406 16.6319444,4.99863281 16.7638889,5.13222656 L19.8958333,8.30332031 C20.0277778,8.43691406 20.2430556,8.43691406 20.375,8.30332031 L21.6041667,7.05878906 C22.1319444,6.52089844 22.1319444,5.65253906 21.6041667,5.11816406 Z M15.3333333,15.1693359 L15.3333333,18.7482422 L4.22222222,18.7482422 L4.22222222,7.49824219 L12.2013889,7.49824219 C12.3125,7.49824219 12.4166667,7.45253906 12.4965278,7.37519531 L13.8854167,5.96894531 C14.1493056,5.70175781 13.9618056,5.24824219 13.5902778,5.24824219 L3.66666667,5.24824219 C2.74652778,5.24824219 2,6.00410156 2,6.93574219 L2,19.3107422 C2,20.2423828 2.74652778,20.9982422 3.66666667,20.9982422 L15.8888889,20.9982422 C16.8090278,20.9982422 17.5555556,20.2423828 17.5555556,19.3107422 L17.5555556,13.7630859 C17.5555556,13.3869141 17.1076389,13.2005859 16.84375,13.4642578 L15.4548611,14.8705078 C15.3784722,14.9513672 15.3333333,15.0568359 15.3333333,15.1693359 Z" id="path-1"></path>
    </defs>
    <g id="Symbols" stroke="none" stroke-width="1" fill="none" fill-rule="evenodd">
        <g id="Icons/Solid/edit" transform="translate(-2.000000, -3.000000)">
            <mask id="mask-2" fill="white">
                <use xlink:href="#path-1"></use>
            </mask>
            <use id="edit" fill="#000000" fill-rule="nonzero" xlink:href="#path-1"></use>
        </g>
    </g>
</svg>