<?xml version="1.0" encoding="UTF-8"?>
<svg width="20px" height="18px" viewBox="0 0 20 18" version="1.1" xmlns="http://www.w3.org/2000/svg" xmlns:xlink="http://www.w3.org/1999/xlink">
    <!-- Generator: Sketch 51.3 (57544) - http://www.bohemiancoding.com/sketch -->
    <title>eye-slash</title>
    <desc>Created with Sketch.</desc>
    <defs>
        <path d="M11.9546316,16.7807051 L13.0858459,18.4169473 C12.7249009,18.4513979 12.3625587,18.4686903 12.0000135,18.4687676 C7.83994746,18.4687676 4.18859629,16.2205605 2.2307854,12.8567402 C1.92307856,12.3280662 1.92307856,11.6719338 2.2307854,11.1432598 C3.06491666,9.71008008 4.20692961,8.47929492 5.56494933,7.53844336 L7.54678798,10.4050488 C7.37279506,10.9038457 7.27779514,11.4405762 7.27779514,12.0000176 C7.27779514,14.6274551 9.36581426,16.7560254 11.9546316,16.7807051 Z M21.7692416,12.8567402 C20.6696939,14.7459316 19.034973,16.2830684 17.075669,17.2679707 L17.076051,17.268498 L18.5159804,19.349748 C18.779869,19.7315449 18.6882024,20.2574824 18.3111194,20.5246699 L17.8559115,20.8474043 C17.4788284,21.1145918 16.9593844,21.0217793 16.6954957,20.6399824 L5.48404662,4.65025195 C5.22015794,4.26845508 5.31182454,3.74251758 5.68890756,3.47533008 L6.14411552,3.1525957 C6.52119854,2.8854082 7.04064256,2.9782207 7.30453123,3.36001758 L9.07668255,5.91295898 C10.0097373,5.66401758 10.9897713,5.53126758 12.0000135,5.53126758 C16.1600795,5.53126758 19.8114307,7.77947461 21.7692416,11.1432949 C22.0769124,11.6719663 22.0769124,12.3280689 21.7692416,12.8567402 Z M16.7222318,12.0000176 C16.7222318,9.35718164 14.609803,7.21876758 12.0000135,7.21876758 C11.3771321,7.21876758 10.7827923,7.34086523 10.2385913,7.56231445 L10.9086949,8.51357227 C11.8069234,8.22631055 12.8199434,8.2969043 13.7003593,8.77408008 L13.6993176,8.77408008 C12.8781378,8.77408008 12.2125133,9.44802539 12.2125133,10.2794707 C12.2125133,11.1100723 12.8773392,11.7848613 13.6993176,11.7848613 C14.5204975,11.7848613 15.186122,11.110916 15.186122,10.2794707 L15.186122,10.278416 C15.8271631,11.4909551 15.7525104,13.0175801 14.8996639,14.179002 L14.8996639,14.1793535 L15.5702883,15.1307168 C16.2880655,14.2922051 16.7222318,13.1979316 16.7222318,12.0000176 Z M11.0977226,15.5412012 L8.40571088,11.6474004 C8.2316138,13.4891309 9.42355727,15.1051582 11.0977226,15.5412012 Z" id="path-1"></path>
    </defs>
    <g id="Symbols" stroke="none" stroke-width="1" fill="none" fill-rule="evenodd">
        <g id="Icons/Solid/eye-slash" transform="translate(-2.000000, -3.000000)">
            <mask id="mask-2" fill="white">
                <use xlink:href="#path-1"></use>
            </mask>
            <use id="eye-slash" fill="#000000" fill-rule="nonzero" xlink:href="#path-1"></use>
        </g>
    </g>
</svg>