<?xml version="1.0" encoding="UTF-8"?>
<svg width="20px" height="14px" viewBox="0 0 20 14" version="1.1" xmlns="http://www.w3.org/2000/svg" xmlns:xlink="http://www.w3.org/1999/xlink">
    <!-- Generator: Sketch 51.3 (57544) - http://www.bohemiancoding.com/sketch -->
    <title>eye</title>
    <desc>Created with Sketch.</desc>
    <defs>
        <path d="M21.7692191,11.1432773 C19.8114099,7.77945703 16.1600619,5.53125 11.9999995,5.53125 C7.83820101,5.53125 4.18765162,7.78103906 2.23077993,11.1432773 C1.92307336,11.6719514 1.92307336,12.3280838 2.23077993,12.8567578 C4.18858912,16.220543 7.83993712,18.46875 11.9999995,18.46875 C16.1617981,18.46875 19.8123474,16.2189609 21.7692191,12.8567227 C22.076927,12.3280616 22.076927,11.6719384 21.7692191,11.1432773 Z M11.9999995,16.78125 C9.39021228,16.78125 7.27778529,14.6428008 7.27778529,12 C7.27778529,9.35758594 9.38979561,7.21875 11.9999995,7.21875 C14.6097868,7.21875 16.7222138,9.35716406 16.7222138,12 C16.7222138,14.6424141 14.6102035,16.78125 11.9999995,16.78125 Z M15.6111045,12 C15.6111045,14.0193047 13.9943712,15.65625 11.9999995,15.65625 C10.0056279,15.65625 8.38889453,14.0193047 8.38889453,12 C8.38889453,11.3774531 8.54274843,10.7913633 8.81375492,10.278293 L8.8137202,10.279418 C8.8137202,11.1108984 9.47944824,11.7849141 10.3006621,11.7849141 C11.121876,11.7849141 11.7876041,11.1108633 11.7876041,10.279418 C11.7876041,9.4479375 11.121876,8.77388672 10.3006621,8.77388672 L10.299551,8.77392188 C10.8062863,8.49952734 11.3851395,8.34375 11.9999995,8.34375 C13.9943712,8.34375 15.6111045,9.98069531 15.6111045,12 Z" id="path-1"></path>
    </defs>
    <g id="Symbols" stroke="none" stroke-width="1" fill="none" fill-rule="evenodd">
        <g id="Icons/Solid/eye" transform="translate(-2.000000, -5.000000)">
            <mask id="mask-2" fill="white">
                <use xlink:href="#path-1"></use>
            </mask>
            <use id="eye" fill="#000000" fill-rule="nonzero" xlink:href="#path-1"></use>
        </g>
    </g>
</svg>