<?xml version="1.0" encoding="UTF-8"?>
<svg width="20px" height="14px" viewBox="0 0 20 14" version="1.1" xmlns="http://www.w3.org/2000/svg" xmlns:xlink="http://www.w3.org/1999/xlink">
    <!-- Generator: Sketch 51.3 (57544) - http://www.bohemiancoding.com/sketch -->
    <title>folder-open</title>
    <desc>Created with Sketch.</desc>
    <defs>
        <path d="M20.3313605,10.875 L18.666673,10.875 L18.666673,9.1875 C18.666673,8.25550781 17.9204924,7.5 17.0000063,7.5 L11.4444508,7.5 L9.22222855,5.25 L3.66667299,5.25 C2.74618688,5.25 2.00000633,6.00550781 2.00000633,6.9375 L2.00000633,17.0625 C2.00000633,17.9944922 2.74618688,18.75 3.66667299,18.75 L17.5555619,18.75 C18.1302109,18.7499947 18.6643256,18.4502637 18.9688952,17.956875 L21.7446591,13.456875 C22.437298,12.334793 21.639173,10.875 20.3313605,10.875 Z M3.87500633,6.9375 L8.53188133,6.9375 L10.7541036,9.1875 L16.791673,9.1875 C16.9067323,9.1875 17.0000063,9.28193994 17.0000063,9.3984375 L17.0000063,10.875 L7.27778411,10.875 C6.69382417,10.875002 6.15245852,11.184452 5.85077022,11.6906953 L3.66667299,15.3556289 L3.66667299,7.14819141 C3.66667296,7.09226991 3.68863005,7.03864239 3.72770713,6.99912301 C3.76678422,6.95960362 3.81977525,6.93743468 3.87500633,6.9375 Z M17.5555619,17.0625 L4.50000633,17.0625 L7.18174244,12.5625 L20.3333397,12.5625 L17.5555619,17.0625 Z" id="path-1"></path>
    </defs>
    <g id="Symbols" stroke="none" stroke-width="1" fill="none" fill-rule="evenodd">
        <g id="Icons/Regular/folder-open" transform="translate(-2.000000, -5.000000)">
            <mask id="mask-2" fill="white">
                <use xlink:href="#path-1"></use>
            </mask>
            <use id="folder-open" fill="#000000" fill-rule="nonzero" xlink:href="#path-1"></use>
        </g>
    </g>
</svg>