<?xml version="1.0" encoding="UTF-8"?>
<svg width="20px" height="16px" viewBox="0 0 20 16" version="1.1" xmlns="http://www.w3.org/2000/svg" xmlns:xlink="http://www.w3.org/1999/xlink">
    <!-- Generator: Sketch 51.3 (57544) - http://www.bohemiancoding.com/sketch -->
    <title>home</title>
    <desc>Created with Sketch.</desc>
    <defs>
        <path d="M18.9434065,13.987207 L18.9434065,19.0250977 C18.9434065,19.4926758 18.5718789,19.8688477 18.1100736,19.8688477 L14.0822978,19.8688477 C13.8531313,19.8688477 13.6656314,19.6790039 13.6656314,19.4469727 L13.6656314,15.5094727 C13.6656314,15.2774414 13.4781315,15.0875977 13.2489649,15.0875977 L10.7489662,15.0875977 C10.5197996,15.0875977 10.3322997,15.2774414 10.3322997,15.5094727 L10.3322997,19.4469727 C10.3322997,19.6790039 10.1447998,19.8688477 9.91563328,19.8688477 L5.88785755,19.8688477 C5.42605223,19.8688477 5.05452464,19.4926758 5.05452464,19.0250977 L5.05452464,13.987207 C5.05452464,13.8606445 5.11008017,13.7411133 5.20730234,13.6602539 L11.7350768,8.21806641 C11.8878545,8.09150391 12.1100766,8.09150391 12.2663265,8.21806641 L18.794101,13.6602539 C18.8878509,13.7411133 18.9434065,13.8606445 18.9434065,13.987207 Z M21.8461828,11.8461914 L18.9434065,9.42392578 L18.9434065,4.55478516 C18.9434065,4.32275391 18.7559066,4.13291016 18.52674,4.13291016 L16.5822966,4.13291016 C16.35313,4.13291016 16.1656301,4.32275391 16.1656301,4.55478516 L16.1656301,7.10712891 L13.0579928,4.51611328 C12.4434098,4.00283203 11.5545213,4.00283203 10.9399383,4.51611328 L2.15174834,11.8461914 C1.9746651,11.9938477 1.95035956,12.2610352 2.09619282,12.440332 L2.98160903,13.5301758 C3.12744229,13.7094727 3.39133105,13.734082 3.56841429,13.5864258 L11.7350768,6.77666016 C11.8878545,6.65009766 12.1100766,6.65009766 12.2663265,6.77666016 L20.432989,13.5864258 C20.6100723,13.734082 20.873961,13.7094727 21.0197943,13.5301758 L21.9052105,12.440332 C22.0510438,12.2575195 22.023266,11.9938477 21.8461828,11.8461914 Z" id="path-1"></path>
    </defs>
    <g id="Symbols" stroke="none" stroke-width="1" fill="none" fill-rule="evenodd">
        <g id="Icons/Solid/home" transform="translate(-2.000000, -4.000000)">
            <mask id="mask-2" fill="white">
                <use xlink:href="#path-1"></use>
            </mask>
            <use id="home" fill="#000000" fill-rule="nonzero" xlink:href="#path-1"></use>
        </g>
    </g>
</svg>