<?xml version="1.0" encoding="UTF-8"?>
<svg width="18px" height="18px" viewBox="0 0 18 18" version="1.1" xmlns="http://www.w3.org/2000/svg" xmlns:xlink="http://www.w3.org/1999/xlink">
    <!-- Generator: Sketch 51.3 (57544) - http://www.bohemiancoding.com/sketch -->
    <title>plus</title>
    <desc>Created with Sketch.</desc>
    <defs>
        <path d="M21,13.4921875 L21,10.5078125 C21,9.98828125 20.5700893,9.5703125 20.0357143,9.5703125 L14.4991071,9.5703125 L14.4991071,4.1875 C14.4991071,3.66796875 14.0691964,3.25 13.5348214,3.25 L10.4651786,3.25 C9.93080357,3.25 9.50089286,3.66796875 9.50089286,4.1875 L9.50089286,9.5703125 L3.96428571,9.5703125 C3.42991071,9.5703125 3,9.98828125 3,10.5078125 L3,13.4921875 C3,14.0117188 3.42991071,14.4296875 3.96428571,14.4296875 L9.50089286,14.4296875 L9.50089286,19.8125 C9.50089286,20.3320312 9.93080357,20.75 10.4651786,20.75 L13.5348214,20.75 C14.0691964,20.75 14.4991071,20.3320312 14.4991071,19.8125 L14.4991071,14.4296875 L20.0357143,14.4296875 C20.5700893,14.4296875 21,14.0117188 21,13.4921875 Z" id="path-1"></path>
    </defs>
    <g id="Symbols" stroke="none" stroke-width="1" fill="none" fill-rule="evenodd">
        <g id="Icons/Solid/plus" transform="translate(-3.000000, -3.000000)">
            <mask id="mask-2" fill="white">
                <use xlink:href="#path-1"></use>
            </mask>
            <use id="plus" fill="#000000" fill-rule="nonzero" xlink:href="#path-1"></use>
        </g>
    </g>
</svg>