<?xml version="1.0" encoding="UTF-8"?>
<svg width="18px" height="20px" viewBox="0 0 18 20" version="1.1" xmlns="http://www.w3.org/2000/svg" xmlns:xlink="http://www.w3.org/1999/xlink">
    <!-- Generator: Sketch 51.3 (57544) - http://www.bohemiancoding.com/sketch -->
    <title>trash-alt</title>
    <desc>Created with Sketch.</desc>
    <defs>
        <path d="M10.7142857,9.34375 L10.7142857,17.78125 C10.7142857,18.0401172 10.4984063,18.25 10.2321429,18.25 L9.26785714,18.25 C9.00159375,18.25 8.78571429,18.0401172 8.78571429,17.78125 L8.78571429,9.34375 C8.78571429,9.08488281 9.00159375,8.875 9.26785714,8.875 L10.2321429,8.875 C10.4984063,8.875 10.7142857,9.08488281 10.7142857,9.34375 Z M14.7321429,8.875 L13.7678571,8.875 C13.5015938,8.875 13.2857143,9.08488281 13.2857143,9.34375 L13.2857143,17.78125 C13.2857143,18.0401172 13.5015938,18.25 13.7678571,18.25 L14.7321429,18.25 C14.9984063,18.25 15.2142857,18.0401172 15.2142857,17.78125 L15.2142857,9.34375 C15.2142857,9.08488281 14.9984063,8.875 14.7321429,8.875 Z M20.0357143,5.125 C20.5682812,5.125 21,5.54472656 21,6.0625 L21,6.53125 C21,6.79011719 20.7841205,7 20.5178571,7 L19.7142857,7 L19.7142857,20.125 C19.7142857,21.1605469 18.8508482,22 17.7857143,22 L6.21428571,22 C5.14915179,22 4.28571429,21.1605469 4.28571429,20.125 L4.28571429,7 L3.48214286,7 C3.21587946,7 3,6.79011719 3,6.53125 L3,6.0625 C3,5.54472656 3.43171875,5.125 3.96428571,5.125 L6.95401339,5.125 L8.32080804,2.9103125 C8.66935025,2.34555135 9.29711932,1.99999366 9.97455804,2 L14.0254821,2 C14.7029209,1.99999366 15.3306899,2.34555135 15.6792321,2.9103125 L17.0459866,5.125 L20.0357143,5.125 Z M9.20312946,5.125 L14.7969107,5.125 L14.0957143,3.98878906 C14.0521465,3.91819392 13.9736754,3.87499921 13.8889955,3.875 L10.1110848,3.875 C10.026405,3.87499921 9.94793385,3.91819392 9.90436607,3.98878906 L9.20312946,5.125 Z M17.7857143,7 L6.21428571,7 L6.21428571,19.890625 C6.21428571,20.0200667 6.32221707,20.125 6.45535714,20.125 L17.5446429,20.125 C17.6777829,20.125 17.7857143,20.0200667 17.7857143,19.890625 L17.7857143,7 Z" id="path-1"></path>
    </defs>
    <g id="Symbols" stroke="none" stroke-width="1" fill="none" fill-rule="evenodd">
        <g id="Icons/Regular/trash-alt" transform="translate(-3.000000, -2.000000)">
            <mask id="mask-2" fill="white">
                <use xlink:href="#path-1"></use>
            </mask>
            <use id="trash-alt" fill="#000000" fill-rule="nonzero" xlink:href="#path-1"></use>
        </g>
    </g>
</svg>